<svg xmlns="http://www.w3.org/2000/svg" width="1800" height="820" viewBox="0 0 1800 820" role="img" aria-labelledby="seoul-title seoul-desc"><title id="seoul-title">한글메이트 AI 사용자 공동 문서 편집</title><desc id="seoul-desc">사용자 직접 입력과 AI WebMCP 도구 입력이 같은 rhwp 문서와 실행 취소 기록을 공유한다. 문서 및 커서 스냅샷 검증을 거쳐 AI 변경을 반영한다.</desc><defs><marker id="arrow" markerWidth="8" markerHeight="8" refX="7" refY="4" orient="auto"><path d="M0 0L8 4L0 8Z" fill="#85909c"/></marker></defs><style>text{font-family:Malgun Gothic,Segoe UI,Arial,sans-serif;fill:#1c1e21}.muted{fill:#65717e}.blue{fill:#2478ed}.teal{fill:#008e83}</style><rect width="1800" height="820" fill="white"/><text x="900" y="69" text-anchor="middle" font-size="37" class="" font-weight="600">한글메이트 · AI와 함께 쓰고 고치는 한글 문서</text><text x="900" y="115" text-anchor="middle" font-size="23" class="muted" font-weight="400">직접 편집과 AI 편집을 하나의 문서에서</text><path d="M362 324H625" fill="none" stroke="#85909c" stroke-width="2" stroke-linecap="round" stroke-linejoin="round" marker-end="url(#arrow)"/><text x="477" y="301" text-anchor="middle" font-size="21" class="blue" font-weight="400">직접 편집</text><path d="M362 555H625" fill="none" stroke="#85909c" stroke-width="2" stroke-linecap="round" stroke-linejoin="round" marker-end="url(#arrow)"/><text x="479" y="529" text-anchor="middle" font-size="20" class="teal" font-weight="400">AI 편집 · WebMCP</text><path d="M1225 431H1455" fill="none" stroke="#85909c" stroke-width="2" stroke-linecap="round" stroke-linejoin="round" marker-end="url(#arrow)"/><text x="1340" y="407" text-anchor="middle" font-size="21" class="muted" font-weight="400">확인 후 저장</text><circle cx="250" cy="259" r="35" fill="#dce9fa" stroke="#2478ed" stroke-width="2"/><path d="M182 353V332Q182 304 211 302H289Q318 304 318 332V353Z" fill="#eef5ff" stroke="#2478ed" stroke-width="2" stroke-linecap="round" stroke-linejoin="round"/><text x="250" y="397" text-anchor="middle" font-size="26" class="" font-weight="600">사용자</text><rect x="193" y="488" width="114" height="91" rx="18" fill="#f4faf9" stroke="#008e83" stroke-width="1.5"/><path d="M250 488V473" fill="none" stroke="#008e83" stroke-width="2" stroke-linecap="round" stroke-linejoin="round"/><circle cx="250" cy="467" r="6" fill="#008e83"/><circle cx="226" cy="527" r="7" fill="#008e83"/><circle cx="274" cy="527" r="7" fill="#008e83"/><path d="M229 551Q250 568 271 551" fill="none" stroke="#008e83" stroke-width="3" stroke-linecap="round" stroke-linejoin="round"/><path d="M193 523H181V547H193M307 523H319V547H307" fill="none" stroke="#008e83" stroke-width="2" stroke-linecap="round" stroke-linejoin="round"/><text x="250" y="623" text-anchor="middle" font-size="26" class="teal" font-weight="600">AI · GPT</text><rect x="625" y="211" width="600" height="432" rx="16" fill="white" stroke="#b7d2f5" stroke-width="1.5"/><path d="M625 258H1225" fill="none" stroke="#d4dce5" stroke-width="1.5" stroke-linecap="round" stroke-linejoin="round"/><circle cx="651" cy="234" r="4" fill="#a4afbc"/><circle cx="671" cy="234" r="4" fill="#a4afbc"/><circle cx="691" cy="234" r="4" fill="#a4afbc"/><text x="925" y="241" text-anchor="middle" font-size="20" class="" font-weight="600">한글메이트 편집기</text><rect x="695" y="286" width="460" height="296" rx="8" fill="#f7f9fb" stroke="none" stroke-width="1.5"/><text x="740" y="328" text-anchor="start" font-size="25" class="" font-weight="600">함께 작성하는 문서</text><rect x="736" y="350" width="314" height="24" rx="4" fill="#e9f3ff" stroke="none" stroke-width="1.5"/><path d="M744 363H1088M744 393H1102" fill="none" stroke="#a4afbc" stroke-width="2" stroke-linecap="round" stroke-linejoin="round"/><path d="M1059 349V377" fill="none" stroke="#2478ed" stroke-width="2.5" stroke-linecap="round" stroke-linejoin="round"/><rect x="736" y="414" width="286" height="25" rx="4" fill="#e1f3ef" stroke="none" stroke-width="1.5"/><path d="M744 427H1008" fill="none" stroke="#008e83" stroke-width="2" stroke-linecap="round" stroke-linejoin="round"/><path d="M1030 415V439" fill="none" stroke="#008e83" stroke-width="2.5" stroke-linecap="round" stroke-linejoin="round"/><rect x="740" y="462" width="366" height="84" rx="6" fill="white" stroke="#b7d2f5" stroke-width="1.5"/><path d="M740 490H1106M740 518H1106M862 462V546M984 462V546" fill="none" stroke="#b7d2f5" stroke-width="1.5" stroke-linecap="round" stroke-linejoin="round"/><rect x="865" y="493" width="116" height="22" rx="2" fill="#e1f3ef" stroke="none" stroke-width="1.5"/><text x="925" y="618" text-anchor="middle" font-size="22" class="blue" font-weight="600">같은 문서 · 같은 기록</text><path d="M1490 313H1587L1638 364V524H1490Z" fill="#f7faff" stroke="#2478ed" stroke-width="2" stroke-linecap="round" stroke-linejoin="round"/><path d="M1587 313V364H1638" fill="none" stroke="#2478ed" stroke-width="2" stroke-linecap="round" stroke-linejoin="round"/><path d="M1515 392h95" fill="none" stroke="#b7d2f5" stroke-width="2" stroke-linecap="round" stroke-linejoin="round"/><path d="M1515 416h77" fill="none" stroke="#b7d2f5" stroke-width="2" stroke-linecap="round" stroke-linejoin="round"/><path d="M1515 440h95" fill="none" stroke="#b7d2f5" stroke-width="2" stroke-linecap="round" stroke-linejoin="round"/><circle cx="1633" cy="515" r="29" fill="#e1f3ef" stroke="#008e83" stroke-width="2"/><path d="M1619 514l10 10 19-21" fill="none" stroke="#008e83" stroke-width="3" stroke-linecap="round" stroke-linejoin="round"/><text x="1567" y="585" text-anchor="middle" font-size="22" class="" font-weight="600">HWP · HWPX · PDF</text><path d="M500 716l18-7 18 7v17q-3 13-18 22-15-9-18-22Z" fill="#f4faf9" stroke="#008e83" stroke-width="2" stroke-linecap="round" stroke-linejoin="round"/><path d="M509 730l7 7 12-14" fill="none" stroke="#008e83" stroke-width="2" stroke-linecap="round" stroke-linejoin="round"/><text x="566" y="739" text-anchor="start" font-size="20" class="muted" font-weight="400">문서·커서가 바뀌면 다시 확인</text><text x="1240" y="739" text-anchor="middle" font-size="20" class="muted" font-weight="400">rhwp 엔진 · 브라우저에서 문서 처리</text><text x="900" y="795" text-anchor="middle" font-size="15" class="muted" font-weight="400">개발·검증 중 · 형식별 저장·재열기 검증 진행</text></svg>